<mxfile host="app.diagrams.net" modified="2024-01-24T13:33:07.300Z" agent="Mozilla/5.0 (Windows NT 10.0; Win64; x64) AppleWebKit/537.36 (KHTML, like Gecko) Chrome/120.0.0.0 Safari/537.36" etag="AteKFuw8tNVXkgEs0Hsg" version="22.1.21" type="device">
  <diagram name="Seite-1" id="qr3H_Jf_LRvkIRNIn37d">
    <mxGraphModel dx="4394" dy="1110" grid="0" gridSize="10" guides="1" tooltips="1" connect="1" arrows="1" fold="1" page="0" pageScale="1" pageWidth="827" pageHeight="1169" math="0" shadow="0">
      <root>
        <mxCell id="0" />
        <mxCell id="1" parent="0" />
        <mxCell id="jTq6OrrfIvA0bQppSqG0-1" value="Ausweichen" style="ellipse;whiteSpace=wrap;html=1;fontSize=16;" parent="1" vertex="1">
          <mxGeometry x="-42" y="338" width="120" height="80" as="geometry" />
        </mxCell>
        <mxCell id="jTq6OrrfIvA0bQppSqG0-2" value="Dynamische Hindernisse erkennen" style="ellipse;whiteSpace=wrap;html=1;fontSize=16;" parent="1" vertex="1">
          <mxGeometry x="-681" y="521" width="135" height="81" as="geometry" />
        </mxCell>
        <mxCell id="jTq6OrrfIvA0bQppSqG0-3" value="Geschwindigkeit anpassen" style="ellipse;whiteSpace=wrap;html=1;fontSize=16;" parent="1" vertex="1">
          <mxGeometry x="-456" y="341.5" width="149" height="83" as="geometry" />
        </mxCell>
        <mxCell id="jTq6OrrfIvA0bQppSqG0-4" value="Notbremsen" style="ellipse;whiteSpace=wrap;html=1;fontSize=16;" parent="1" vertex="1">
          <mxGeometry x="-733" y="338" width="120" height="80" as="geometry" />
        </mxCell>
        <mxCell id="jTq6OrrfIvA0bQppSqG0-5" value="Statische Hindernisse erkennen" style="ellipse;whiteSpace=wrap;html=1;fontSize=16;" parent="1" vertex="1">
          <mxGeometry x="-694" y="172" width="148" height="80" as="geometry" />
        </mxCell>
        <mxCell id="jTq6OrrfIvA0bQppSqG0-6" value="Trajektorie neu planen&amp;nbsp;" style="ellipse;whiteSpace=wrap;html=1;fontSize=16;" parent="1" vertex="1">
          <mxGeometry x="-363" y="114" width="128" height="85" as="geometry" />
        </mxCell>
        <mxCell id="jTq6OrrfIvA0bQppSqG0-8" style="edgeStyle=none;curved=0;rounded=0;orthogonalLoop=1;jettySize=auto;html=1;entryX=0;entryY=0.5;entryDx=0;entryDy=0;fontSize=12;startSize=8;endSize=8;" parent="1" source="jTq6OrrfIvA0bQppSqG0-7" target="jTq6OrrfIvA0bQppSqG0-5" edge="1">
          <mxGeometry relative="1" as="geometry">
            <Array as="points">
              <mxPoint x="-860" y="212" />
            </Array>
          </mxGeometry>
        </mxCell>
        <mxCell id="jTq6OrrfIvA0bQppSqG0-9" style="edgeStyle=none;curved=0;rounded=0;orthogonalLoop=1;jettySize=auto;html=1;entryX=0;entryY=0.5;entryDx=0;entryDy=0;fontSize=12;startSize=8;endSize=8;" parent="1" source="jTq6OrrfIvA0bQppSqG0-7" target="jTq6OrrfIvA0bQppSqG0-2" edge="1">
          <mxGeometry relative="1" as="geometry">
            <Array as="points">
              <mxPoint x="-860" y="562" />
            </Array>
          </mxGeometry>
        </mxCell>
        <mxCell id="jTq6OrrfIvA0bQppSqG0-7" value="Autonomes Fahrzeug" style="shape=umlActor;verticalLabelPosition=bottom;verticalAlign=top;html=1;outlineConnect=0;fontSize=16;" parent="1" vertex="1">
          <mxGeometry x="-875" y="353" width="30" height="60" as="geometry" />
        </mxCell>
        <mxCell id="jTq6OrrfIvA0bQppSqG0-11" value="&amp;lt;&amp;lt;include&amp;gt;&amp;gt;" style="edgeStyle=none;html=1;endArrow=open;verticalAlign=bottom;dashed=1;labelBackgroundColor=none;rounded=0;fontSize=12;startSize=8;endSize=8;curved=0;exitX=1;exitY=0.5;exitDx=0;exitDy=0;entryX=0.5;entryY=0;entryDx=0;entryDy=0;" parent="1" source="jTq6OrrfIvA0bQppSqG0-5" target="jTq6OrrfIvA0bQppSqG0-3" edge="1">
          <mxGeometry width="160" relative="1" as="geometry">
            <mxPoint x="-567" y="430" as="sourcePoint" />
            <mxPoint x="-407" y="430" as="targetPoint" />
          </mxGeometry>
        </mxCell>
        <mxCell id="jTq6OrrfIvA0bQppSqG0-12" value="&amp;lt;&amp;lt;extends&amp;gt;&amp;gt;" style="edgeStyle=none;html=1;endArrow=open;verticalAlign=bottom;dashed=1;labelBackgroundColor=none;rounded=0;fontSize=12;startSize=8;endSize=8;curved=0;exitX=0.5;exitY=1;exitDx=0;exitDy=0;entryX=0.5;entryY=0;entryDx=0;entryDy=0;" parent="1" source="jTq6OrrfIvA0bQppSqG0-5" target="jTq6OrrfIvA0bQppSqG0-4" edge="1">
          <mxGeometry x="0.2051" y="10" width="160" relative="1" as="geometry">
            <mxPoint x="-567" y="430" as="sourcePoint" />
            <mxPoint x="-407" y="430" as="targetPoint" />
            <mxPoint as="offset" />
          </mxGeometry>
        </mxCell>
        <mxCell id="jTq6OrrfIvA0bQppSqG0-13" value="&amp;lt;&amp;lt;include&amp;gt;&amp;gt;" style="edgeStyle=none;html=1;endArrow=open;verticalAlign=bottom;dashed=1;labelBackgroundColor=none;rounded=0;fontSize=12;startSize=8;endSize=8;curved=0;exitX=0;exitY=0.5;exitDx=0;exitDy=0;entryX=1;entryY=0.5;entryDx=0;entryDy=0;" parent="1" source="jTq6OrrfIvA0bQppSqG0-1" target="jTq6OrrfIvA0bQppSqG0-3" edge="1">
          <mxGeometry width="160" relative="1" as="geometry">
            <mxPoint x="-536" y="222" as="sourcePoint" />
            <mxPoint x="-240" y="310" as="targetPoint" />
          </mxGeometry>
        </mxCell>
        <mxCell id="jTq6OrrfIvA0bQppSqG0-14" value="&amp;lt;&amp;lt;include&amp;gt;&amp;gt;" style="edgeStyle=none;html=1;startArrow=open;endArrow=none;startSize=12;verticalAlign=bottom;dashed=1;labelBackgroundColor=none;rounded=0;fontSize=12;curved=0;entryX=1;entryY=0.5;entryDx=0;entryDy=0;" parent="1" source="jTq6OrrfIvA0bQppSqG0-3" target="jTq6OrrfIvA0bQppSqG0-4" edge="1">
          <mxGeometry width="160" relative="1" as="geometry">
            <mxPoint x="-454" y="383" as="sourcePoint" />
            <mxPoint x="-371" y="430" as="targetPoint" />
          </mxGeometry>
        </mxCell>
        <mxCell id="jTq6OrrfIvA0bQppSqG0-15" value="&amp;lt;&amp;lt;extend&amp;gt;&amp;gt;" style="edgeStyle=none;html=1;startArrow=open;endArrow=none;startSize=12;verticalAlign=bottom;dashed=1;labelBackgroundColor=none;rounded=0;fontSize=12;curved=0;exitX=0;exitY=0.5;exitDx=0;exitDy=0;entryX=1;entryY=0.5;entryDx=0;entryDy=0;" parent="1" source="jTq6OrrfIvA0bQppSqG0-6" target="jTq6OrrfIvA0bQppSqG0-5" edge="1">
          <mxGeometry width="160" relative="1" as="geometry">
            <mxPoint x="-424" y="375" as="sourcePoint" />
            <mxPoint x="-222" y="338" as="targetPoint" />
          </mxGeometry>
        </mxCell>
        <mxCell id="jTq6OrrfIvA0bQppSqG0-16" value="&amp;lt;&amp;lt;extend&amp;gt;&amp;gt;" style="edgeStyle=none;html=1;startArrow=open;endArrow=none;startSize=12;verticalAlign=bottom;dashed=1;labelBackgroundColor=none;rounded=0;fontSize=12;curved=0;entryX=0.5;entryY=0;entryDx=0;entryDy=0;exitX=0.5;exitY=1;exitDx=0;exitDy=0;" parent="1" source="jTq6OrrfIvA0bQppSqG0-4" target="jTq6OrrfIvA0bQppSqG0-2" edge="1">
          <mxGeometry width="160" relative="1" as="geometry">
            <mxPoint x="-587" y="430" as="sourcePoint" />
            <mxPoint x="-427" y="430" as="targetPoint" />
          </mxGeometry>
        </mxCell>
        <mxCell id="jTq6OrrfIvA0bQppSqG0-17" value="&amp;lt;&amp;lt;extend&amp;gt;&amp;gt;" style="edgeStyle=none;html=1;startArrow=open;endArrow=none;startSize=12;verticalAlign=bottom;dashed=1;labelBackgroundColor=none;rounded=0;fontSize=12;curved=0;entryX=1;entryY=0.5;entryDx=0;entryDy=0;exitX=0.5;exitY=1;exitDx=0;exitDy=0;" parent="1" source="jTq6OrrfIvA0bQppSqG0-1" target="jTq6OrrfIvA0bQppSqG0-2" edge="1">
          <mxGeometry width="160" relative="1" as="geometry">
            <mxPoint x="-587" y="430" as="sourcePoint" />
            <mxPoint x="-427" y="430" as="targetPoint" />
            <Array as="points">
              <mxPoint x="16" y="562" />
            </Array>
          </mxGeometry>
        </mxCell>
        <mxCell id="jTq6OrrfIvA0bQppSqG0-18" value="&amp;lt;&amp;lt;extend&amp;gt;&amp;gt;" style="edgeStyle=none;html=1;startArrow=open;endArrow=none;startSize=12;verticalAlign=bottom;dashed=1;labelBackgroundColor=none;rounded=0;fontSize=12;curved=0;entryX=1;entryY=0.5;entryDx=0;entryDy=0;exitX=0.5;exitY=0;exitDx=0;exitDy=0;" parent="1" source="jTq6OrrfIvA0bQppSqG0-1" target="jTq6OrrfIvA0bQppSqG0-5" edge="1">
          <mxGeometry width="160" relative="1" as="geometry">
            <mxPoint x="-402" y="430" as="sourcePoint" />
            <mxPoint x="-242" y="430" as="targetPoint" />
            <Array as="points">
              <mxPoint x="16" y="217" />
            </Array>
          </mxGeometry>
        </mxCell>
        <mxCell id="jTq6OrrfIvA0bQppSqG0-19" value="uc [package] Behaviour [Hinderisvermeidung]" style="shape=umlFrame;whiteSpace=wrap;html=1;pointerEvents=0;fontSize=16;width=355;height=32;" parent="1" vertex="1">
          <mxGeometry x="-773" y="89" width="857" height="537" as="geometry" />
        </mxCell>
        <mxCell id="Zzk4hDYK5tpOmxReliqF-1" value="&amp;lt;&amp;lt;include&amp;gt;&amp;gt;" style="edgeStyle=none;html=1;startArrow=open;endArrow=none;startSize=12;verticalAlign=bottom;dashed=1;labelBackgroundColor=none;rounded=0;fontSize=12;curved=0;entryX=1;entryY=0.5;entryDx=0;entryDy=0;exitX=0.5;exitY=1;exitDx=0;exitDy=0;" edge="1" parent="1" source="jTq6OrrfIvA0bQppSqG0-3" target="jTq6OrrfIvA0bQppSqG0-2">
          <mxGeometry width="160" relative="1" as="geometry">
            <mxPoint x="-446" y="387" as="sourcePoint" />
            <mxPoint x="-603" y="388" as="targetPoint" />
          </mxGeometry>
        </mxCell>
      </root>
    </mxGraphModel>
  </diagram>
</mxfile>
